<svg width="167" height="167" viewBox="0 0 167 167" fill="none" xmlns="http://www.w3.org/2000/svg">
<g clip-path="url(#clip0_413_3)">
<path d="M25.7851 0H141.215C155.398 0 167 11.6023 167 25.7851V141.215C167 155.398 155.398 167 141.215 167H25.7851C11.6023 167 0 155.398 0 141.215V25.7851C0 11.6072 11.6023 0 25.7851 0V0Z" fill="#1C2A39"/>
<path fill-rule="evenodd" clip-rule="evenodd" d="M78.9718 130.334C81.7401 109.206 102.275 95.0331 123.117 100.041C122.568 102.127 121.861 104.149 121.006 106.092C104.317 102.443 87.9392 113.675 85.3736 130.542C83.1984 130.641 81.1271 130.572 78.9718 130.339V130.334ZM97.8064 46.6168C89.9463 45.1437 83.0551 52.0349 84.5282 59.895C92.3883 61.3681 99.2795 54.4769 97.8064 46.6168ZM69.1936 46.8047C77.0537 45.3315 83.9449 52.2227 82.4718 60.0828C74.6117 61.556 67.7205 54.6648 69.1936 46.8047ZM83.5099 36.4185C88.5522 39.869 88.5522 47.3089 83.5099 50.7595C78.4676 47.3089 78.4676 39.869 83.5099 36.4185ZM116.765 83.9746C116.152 76.0008 107.713 71.1265 100.501 74.5869C101.114 82.5607 109.557 87.435 116.765 83.9746ZM109.176 56.3851C112.637 63.5976 107.758 72.0411 99.7887 72.6491C96.3332 65.4366 101.207 56.9932 109.176 56.3851ZM122.914 67.5277C120.892 73.2819 113.69 75.2098 109.063 71.2402C111.085 65.491 118.287 63.5581 122.914 67.5277ZM50.2256 83.9746C50.8386 76.0008 59.277 71.1265 66.4896 74.5869C65.8766 82.5607 57.4381 87.435 50.2256 83.9746ZM57.8138 56.3851C54.3583 63.5976 59.2325 72.0411 67.2064 72.6491C70.6618 65.4366 65.7876 56.9932 57.8138 56.3851ZM44.0759 67.5277C46.0978 73.2769 53.3004 75.2098 57.9275 71.2402C55.9007 65.491 48.703 63.5581 44.0759 67.5277ZM83.4951 62.7424C85.9124 62.7424 87.8799 64.705 87.8799 67.1223C87.8799 69.5446 85.9174 71.5022 83.4951 71.5022C81.0777 71.5022 79.1151 69.5397 79.1151 67.1223C79.1151 64.7 81.0777 62.7424 83.4951 62.7424ZM124.442 88.7747C124.486 90.9844 124.368 93.0607 124.071 95.2111C100.659 89.6892 77.3553 105.553 74.1173 129.504C72.0015 129.01 69.9549 128.347 67.9775 127.541C68.0616 127.017 68.1555 126.503 68.2544 125.989C66.7466 123.329 64.5913 121.085 62.0058 119.469C59.3265 117.793 56.1676 116.789 52.7665 116.705C51.1104 114.827 49.6225 112.8 48.3322 110.64C56.6175 109.295 64.8631 112.222 70.4493 118.267C71.0771 116.616 71.7939 115.01 72.5947 113.457C65.5009 106.794 55.5694 104.015 45.9791 106.087C45.1239 104.144 44.417 102.122 43.8732 100.036C55.2679 97.2972 67.1915 100.258 75.9464 107.906C76.8906 106.561 77.904 105.266 78.9817 104.03C69.1145 95.5274 55.6733 92.2054 42.9191 95.2061C42.6275 93.0557 42.5039 90.9745 42.5484 88.7697C55.8364 86.0014 69.4606 88.9774 80.2868 96.9413C80.3016 86.2683 82.6151 76.5643 68.2939 73.974C72.3574 71.5813 80.2571 73.4499 83.4802 77.296C87.8354 71.9768 96.442 72.5848 98.6665 73.974C84.3404 76.5643 86.6539 86.2733 86.6688 96.9462C97.4109 89.0367 111.055 85.9717 124.437 88.7796L124.442 88.7747ZM118.653 110.645C117.363 112.8 115.88 114.827 114.224 116.7C106.858 116.873 100.421 121.406 97.6828 128.055C95.3693 128.911 92.9519 129.558 90.4653 129.988C93.1398 117.13 105.444 108.529 118.648 110.645H118.653Z" fill="url(#paint0_linear_413_3)"/>
</g>
<defs>
<linearGradient id="paint0_linear_413_3" x1="84.899" y1="136.454" x2="78.9471" y2="26.1657" gradientUnits="userSpaceOnUse">
<stop stop-color="#0DAB50"/>
<stop offset="1" stop-color="#D6F140"/>
</linearGradient>
<clipPath id="clip0_413_3">
<rect width="167" height="167" fill="white"/>
</clipPath>
</defs>
</svg>
