<svg width="240" height="240" viewBox="0 0 240 240" fill="none" xmlns="http://www.w3.org/2000/svg">
<path d="M129.894 30.0002L75.7379 30.2315C52.8197 33.3844 33.1839 47.5893 31.4496 71.8231C30.9013 74.0477 31.1716 76.3064 31.0941 78.3731C30.8442 88.9631 30.9042 100.356 31.066 111.259C31.1092 128.465 30.601 142.328 30.925 155.119C31.1326 192.706 53.3223 210.272 93.617 209.54C103.6 209.359 115.015 209.294 128.105 209.636C141.125 209.724 151.162 210.582 160.106 209.309C199.828 203.656 207.571 177.015 209.184 155.446V130.746C208.025 105.655 189.833 98.7476 174.278 98.238C175.95 91.9659 176.352 83.4385 174.887 71.9527C173.003 49.6344 157.163 32.1838 129.894 30V30.0002ZM84.6069 63.7045H128.664C153.023 66.9489 151.875 93.2127 128.664 96.9801H84.6069C60.2482 93.7358 61.3953 67.4719 84.6069 63.7045ZM74.6039 136.388L155.542 136.665C180.017 139.821 180.086 169.617 156.394 173.263L75.4558 172.981C50.3559 169.895 50.7082 140.065 74.6039 136.388V136.388Z" fill="#0DAB50"/>
</svg>
