<svg width="240" height="240" viewBox="0 0 240 240" fill="none" xmlns="http://www.w3.org/2000/svg">
<path d="M196.5 48H88.5C81.0469 48 75 54.2578 75 61.9584V75C81.5869 75 87.6844 76.9072 92.7469 80.0091V66H191.747V147H173.747C173.747 147 171.732 147 169.247 147H142.247C139.762 147 137.747 147 137.747 147H110.803C117.01 151.635 121.924 157.828 125.079 165H196.489C203.953 165 210 158.756 210 151.05V61.9584C210 54.2578 203.953 48 196.5 48ZM75 138C89.9119 138 102 125.912 102 111C102 96.0881 89.9119 84 75 84C59.8406 84 48 95.8406 48 111C48 125.906 59.8406 138 75 138ZM84 147H66C46.1184 147 30 163.118 30 183C30 187.97 34.0303 192 39 192H111C115.97 192 120 187.97 120 183C120 163.116 103.884 147 84 147Z" fill="#0DAB50"/>
</svg>
