<svg width="240" height="240" viewBox="0 0 240 240" fill="none" xmlns="http://www.w3.org/2000/svg">
<path fill-rule="evenodd" clip-rule="evenodd" d="M50.9374 33.8847C53.4247 31.3974 56.7983 30 60.3159 30H179.684C183.202 30 186.575 31.3974 189.063 33.8847C191.55 36.372 192.947 39.7456 192.947 43.2632V132.789C192.947 135.406 190.827 137.526 188.211 137.526C185.595 137.526 183.474 135.406 183.474 132.789V43.2632C183.474 42.2581 183.075 41.2943 182.364 40.5836C181.653 39.8729 180.689 39.4737 179.684 39.4737H60.3159C59.3109 39.4737 58.347 39.8729 57.6363 40.5836C56.9257 41.2943 56.5264 42.2581 56.5264 43.2632V196.737C56.5264 197.742 56.9257 198.706 57.6363 199.416C58.347 200.127 59.3109 200.526 60.3159 200.526H107.211C109.827 200.526 111.947 202.647 111.947 205.263C111.947 207.879 109.827 210 107.211 210H60.3159C56.7983 210 53.4248 208.603 50.9374 206.115C48.4501 203.628 47.0527 200.254 47.0527 196.737V43.2632C47.0527 39.7455 48.4501 36.372 50.9374 33.8847ZM80.6843 68.8421C80.6843 66.226 82.8051 64.1053 85.4212 64.1053H145.105C147.721 64.1053 149.842 66.226 149.842 68.8421C149.842 71.4582 147.721 73.5789 145.105 73.5789H85.4212C82.8051 73.5789 80.6843 71.4582 80.6843 68.8421ZM80.6843 102.947C80.6843 100.331 82.8051 98.2105 85.4212 98.2105H145.105C147.721 98.2105 149.842 100.331 149.842 102.947C149.842 105.563 147.721 107.684 145.105 107.684H85.4212C82.8051 107.684 80.6843 105.563 80.6843 102.947ZM80.6843 137.053C80.6843 134.437 82.8051 132.316 85.4212 132.316H111C113.616 132.316 115.737 134.437 115.737 137.053C115.737 139.669 113.616 141.789 111 141.789H85.4212C82.8051 141.789 80.6843 139.669 80.6843 137.053Z" fill="#0DAB50"/>
<path d="M155.645 135.395C148.267 135.395 141.055 137.582 134.921 141.681C128.786 145.78 124.005 151.606 121.182 158.422C118.358 165.238 117.62 172.739 119.059 179.975C120.498 187.211 124.051 193.857 129.268 199.074C134.485 204.291 141.132 207.844 148.368 209.283C155.604 210.723 163.104 209.984 169.92 207.16C176.736 204.337 182.562 199.556 186.661 193.422C190.76 187.287 192.948 180.075 192.948 172.697C192.948 162.804 189.017 153.316 182.022 146.32C175.026 139.325 165.538 135.395 155.645 135.395V135.395ZM155.645 151.382C156.435 151.382 157.208 151.616 157.865 152.055C158.523 152.494 159.035 153.118 159.337 153.849C159.64 154.579 159.719 155.383 159.565 156.158C159.411 156.933 159.03 157.645 158.471 158.204C157.912 158.763 157.2 159.144 156.425 159.298C155.649 159.452 154.846 159.373 154.115 159.071C153.385 158.768 152.761 158.256 152.322 157.599C151.883 156.941 151.648 156.169 151.648 155.378C151.648 154.318 152.069 153.302 152.819 152.552C153.568 151.803 154.585 151.382 155.645 151.382ZM166.303 194.346H144.987V188.351H152.647V173.03H147.652V167.035H158.642V188.351H166.303V194.346Z" fill="#0DAB50"/>
</svg>
