<svg width="240" height="240" viewBox="0 0 240 240" fill="none" xmlns="http://www.w3.org/2000/svg">
<path fill-rule="evenodd" clip-rule="evenodd" d="M124.549 39.5443C130.66 33.4332 138.949 30 147.591 30H173.281V55.6897C173.281 64.3321 169.848 72.6205 163.737 78.7316C157.626 84.8427 149.337 88.2759 140.695 88.2759H125.005V130H115.005V108.966H99.3155C90.6731 108.966 82.3846 105.532 76.2735 99.4212C70.1624 93.3101 66.7292 85.0217 66.7292 76.3793V50.6897H92.4189C100.9 50.6897 109.04 53.9959 115.116 59.8946C115.751 52.2379 119.076 45.0177 124.549 39.5443ZM132.076 78.2759L147.591 62.7607C149.544 60.8081 149.544 57.6423 147.591 55.6897C145.639 53.737 142.473 53.737 140.52 55.6897L125.005 71.2048V62.5862C125.005 56.596 127.385 50.8511 131.62 46.6153C135.856 42.3796 141.601 40 147.591 40H163.281V55.6897C163.281 61.6799 160.901 67.4248 156.666 71.6605C152.43 75.8963 146.685 78.2759 140.695 78.2759H132.076ZM107.934 98.9655H99.3155C93.3252 98.9655 87.5803 96.5859 83.3446 92.3502C79.1089 88.1144 76.7292 82.3695 76.7292 76.3793V60.6897H92.4189C98.4091 60.6897 104.154 63.0693 108.39 67.305C112.626 71.5407 115.005 77.2856 115.005 83.2759V91.8945L99.49 76.3793C97.5373 74.4267 94.3715 74.4267 92.4189 76.3793C90.4663 78.3319 90.4663 81.4978 92.4189 83.4504L107.934 98.9655Z" fill="#0DAB50"/>
<path d="M206.656 142.531C202.969 139.188 197.219 139.406 193.344 142.531L164.469 165.625C160.937 168.469 156.531 170 151.969 170H115C112.25 170 110 167.75 110 165C110 162.25 112.25 160 115 160H139.469C144.437 160 149.063 156.594 149.875 151.687C150.906 145.437 146.094 140 140 140H90C81.5625 140 73.4063 142.906 66.8438 148.219L52.3125 160H35C32.25 160 30 162.25 30 165V195C30 197.75 32.25 200 35 200H146.5C151.031 200 155.437 198.469 159 195.625L206.25 157.812C211 154.031 211.375 146.781 206.656 142.531Z" fill="#0DAB50"/>
</svg>
