<svg width="240" height="240" viewBox="0 0 240 240" fill="none" xmlns="http://www.w3.org/2000/svg">
<path fill-rule="evenodd" clip-rule="evenodd" d="M196.908 117.375C196.156 121.434 194.191 125.17 191.272 128.089L128.089 191.272C125.17 194.191 121.434 196.156 117.375 196.908L48.0986 209.737C37.5438 211.692 28.3085 202.456 30.263 191.901L43.0921 122.625C43.8437 118.566 45.8088 114.83 48.7277 111.911L111.911 48.7277C114.83 45.8088 118.566 43.8438 122.625 43.0921L191.901 30.2631C202.456 28.3085 211.692 37.5438 209.737 48.0986L196.908 117.375ZM150.662 60.4791C142.693 68.4482 142.693 81.3687 150.662 89.3377C158.631 97.3068 171.552 97.3068 179.521 89.3377C187.49 81.3687 187.49 68.4482 179.521 60.4791C171.552 52.5101 158.631 52.5101 150.662 60.4791ZM105.571 105.571C97.6016 113.54 97.6016 126.46 105.571 134.429C113.54 142.398 126.46 142.398 134.429 134.429C142.398 126.46 142.398 113.54 134.429 105.571C126.46 97.6016 113.54 97.6016 105.571 105.571ZM60.4791 179.521C52.51 171.552 52.51 158.631 60.4791 150.662C68.4482 142.693 81.3686 142.693 89.3377 150.662C97.3068 158.631 97.3068 171.552 89.3377 179.521C81.3686 187.49 68.4482 187.49 60.4791 179.521Z" fill="#0DAB50"/>
</svg>
