<svg width="240" height="240" viewBox="0 0 240 240" fill="none" xmlns="http://www.w3.org/2000/svg">
<path d="M205.945 170.723L160.128 103.481V44.4412H165.524C166.956 44.4412 168.328 43.8726 169.34 42.8605C170.352 41.8484 170.921 40.4758 170.921 39.0445C170.921 37.6132 170.352 36.2405 169.34 35.2285C168.328 34.2164 166.956 33.6478 165.524 33.6478H101.196C99.7649 33.6478 98.3922 34.2164 97.3802 35.2285C96.3681 36.2405 95.7995 37.6132 95.7995 39.0445C95.7995 40.4758 96.3681 41.8484 97.3802 42.8605C98.3922 43.8726 99.7649 44.4412 101.196 44.4412H106.161V103.481L60.7212 170.237C57.3588 174.925 55.8586 180.695 56.5118 186.427C57.2208 191.936 59.9137 196.997 64.086 200.663C68.2583 204.328 73.6239 206.347 79.1778 206.341H186.356C189.468 206.437 192.569 205.913 195.477 204.802C198.386 203.69 201.046 202.012 203.301 199.865C207.085 196.087 209.423 191.099 209.907 185.773C210.39 180.448 208.988 175.121 205.945 170.723ZM116.954 106.449V44.4412H149.334V106.449L177.127 146.978H89.1616L116.954 106.449Z" fill="#0DAB50"/>
<path d="M54.8117 165.415C50.0534 164.726 45.6108 162.52 42.171 159.08C37.9667 154.875 35.6047 149.173 35.6047 143.227V64.7616H30V53.5522H86.0469V64.7616H80.4422V126.967L69.2308 143.438C69.2322 143.368 69.2328 143.297 69.2328 143.227V64.7616H46.8141V143.227C46.8141 146.2 47.9951 149.051 50.0972 151.153C52.1994 153.256 55.0505 154.437 58.0234 154.437C59.516 154.437 60.9778 154.139 62.3296 153.576L57.4459 160.751C56.4016 162.22 55.5211 163.784 54.8117 165.415Z" fill="#0DAB50"/>
</svg>
