<svg width="240" height="240" viewBox="0 0 240 240" fill="none" xmlns="http://www.w3.org/2000/svg">
<path d="M193.62 130.161V185.448H201.801V201.81H38.181V185.448H46.362V130.161C41.3255 126.799 37.1969 122.246 34.3426 116.906C31.4883 111.565 29.9967 105.603 30 99.5475C30 92.7819 31.8325 86.2616 35.1786 80.7067L57.3654 42.2806C58.0834 41.037 59.1161 40.0043 60.3598 39.2862C61.6034 38.5682 63.0141 38.1902 64.4501 38.1901H175.54C176.976 38.1902 178.387 38.5682 179.63 39.2862C180.874 40.0043 181.907 41.037 182.625 42.2806L204.73 80.584C209.61 88.6903 211.179 98.3657 209.11 107.599C207.041 116.832 201.493 124.912 193.62 130.161ZM177.258 136.133C171.633 136.764 165.938 136.088 160.617 134.158C155.296 132.229 150.492 129.097 146.579 125.007C143.145 128.599 139.018 131.458 134.448 133.411C129.879 135.364 124.961 136.371 119.991 136.37C115.022 136.373 110.105 135.368 105.535 133.418C100.966 131.468 96.8384 128.612 93.4027 125.023C89.4891 129.112 84.6848 132.242 79.3637 134.17C74.0426 136.099 68.3483 136.773 62.724 136.141V185.448H177.258V136.141V136.133Z" fill="#0DAB50"/>
</svg>
