<svg width="240" height="240" viewBox="0 0 240 240" fill="none" xmlns="http://www.w3.org/2000/svg">
<path d="M124.286 61.4286C124.286 63.7964 122.357 65.7143 120 65.7143C108.161 65.7143 98.5715 56.1196 98.5715 44.2857C98.5715 41.9189 100.5 40 102.857 40C114.696 40 124.286 49.5946 124.286 61.4286ZM83.5715 44.2857C87.134 44.2857 90.0001 47.1652 90.0001 50.7143C90.0001 54.2634 87.134 57.1429 83.5715 57.1429H70.7144C67.1652 57.1429 64.2858 54.2634 64.2858 50.7143C64.2858 47.1652 67.1652 44.2857 70.7144 44.2857H83.5715ZM92.1429 63.5714C95.7054 63.5714 98.5715 66.4509 98.5715 70C98.5715 73.5625 95.7054 76.4286 92.1429 76.4286H62.1429C58.5938 76.4286 55.7144 73.5625 55.7144 70C55.7144 66.4509 58.5938 63.5714 62.1429 63.5714H92.1429ZM64.2858 89.2857C64.2858 85.7232 67.1652 82.8571 70.7144 82.8571H83.5715C87.134 82.8571 90.0001 85.7232 90.0001 89.2857C90.0001 92.8482 87.134 95.7143 83.5715 95.7143H70.7144C67.1652 95.7143 64.2858 92.8482 64.2858 89.2857ZM128.571 44.2857C128.571 41.9189 130.5 40 132.857 40C144.696 40 154.286 49.5946 154.286 61.4286C154.286 63.7964 152.357 65.7143 150 65.7143C138.161 65.7143 128.571 56.1196 128.571 44.2857ZM184.286 61.4286C184.286 63.7964 182.357 65.7143 180 65.7143C168.161 65.7143 158.572 56.1196 158.572 44.2857C158.572 41.9189 160.5 40 162.857 40C174.697 40 184.286 49.5946 184.286 61.4286ZM162.857 100C160.5 100 158.572 98.0714 158.572 95.7143C158.572 83.875 168.161 74.2857 180 74.2857C182.357 74.2857 184.286 76.2143 184.286 78.5714C184.286 90.4107 174.697 100 162.857 100ZM150 74.2857C152.357 74.2857 154.286 76.2143 154.286 78.5714C154.286 90.4107 144.696 100 132.857 100C130.5 100 128.571 98.0714 128.571 95.7143C128.571 83.875 138.161 74.2857 150 74.2857ZM102.857 100C100.5 100 98.5715 98.0714 98.5715 95.7143C98.5715 83.875 108.161 74.2857 120 74.2857C122.357 74.2857 124.286 76.2143 124.286 78.5714C124.286 90.4107 114.696 100 102.857 100Z" fill="#0DAB50"/>
<path d="M30 136.875C30 127.559 37.5551 120 46.875 120H193.125C202.441 120 210 127.559 210 136.875V193.125C210 202.441 202.441 210 193.125 210H46.875C37.5551 210 30 202.441 30 193.125V136.875ZM46.875 193.125H63.75C63.75 183.809 56.1949 176.25 46.875 176.25V193.125ZM46.875 136.875V153.75C56.1949 153.75 63.75 146.191 63.75 136.875H46.875ZM193.125 176.25C183.809 176.25 176.25 183.809 176.25 193.125H193.125V176.25ZM176.25 136.875C176.25 146.191 183.809 153.75 193.125 153.75V136.875H176.25ZM120 142.5C107.59 142.5 97.5 152.59 97.5 165C97.5 177.41 107.59 187.5 120 187.5C132.41 187.5 142.5 177.41 142.5 165C142.5 152.59 132.41 142.5 120 142.5Z" fill="#0DAB50"/>
</svg>
