<svg width="240" height="240" viewBox="0 0 240 240" fill="none" xmlns="http://www.w3.org/2000/svg">
<path d="M120 30C153.535 30 172.559 52.1994 175.327 79.0027H176.173C197.754 79.0027 215.249 96.4553 215.249 117.977C215.249 139.505 197.754 156.952 176.173 156.952L167.056 156.957L167.034 157.005H163.933L153.503 174.891C153.065 175.642 152.484 176.299 151.792 176.825C151.101 177.351 150.312 177.735 149.472 177.956C148.631 178.177 147.756 178.231 146.895 178.113C146.034 177.996 145.205 177.711 144.454 177.273C143.704 176.835 143.047 176.254 142.521 175.562C141.995 174.87 141.61 174.082 141.389 173.241C141.168 172.401 141.115 171.525 141.232 170.665C141.349 169.804 141.635 168.974 142.073 168.224L148.65 156.952L126.112 156.957L126.097 157.005H121.598L111.168 174.891C110.73 175.642 110.149 176.299 109.457 176.825C108.766 177.351 107.977 177.735 107.137 177.956C106.297 178.177 105.421 178.231 104.56 178.113C103.699 177.996 102.87 177.711 102.119 177.273C101.369 176.835 100.712 176.254 100.186 175.562C99.6599 174.87 99.2754 174.082 99.0543 173.241C98.8332 172.401 98.7797 171.525 98.897 170.665C99.0142 169.804 99.2999 168.974 99.7377 168.224L106.316 156.952L85.1745 156.957L85.1586 157.005H79.2688L68.8332 174.891C68.3954 175.642 67.8141 176.299 67.1224 176.825C66.4307 177.351 65.6422 177.735 64.8019 177.956C63.9616 178.177 63.086 178.231 62.225 178.113C61.3641 177.996 60.5347 177.711 59.7841 177.273C59.0336 176.835 58.3766 176.254 57.8508 175.562C57.3249 174.87 56.9405 174.082 56.7193 173.241C56.4982 172.401 56.4447 171.525 56.562 170.665C56.6793 169.804 56.965 168.974 57.4028 168.224L63.9806 156.952H63.8271C42.2469 156.952 24.752 139.505 24.752 117.977C24.752 96.4553 42.2469 79.0027 63.8271 79.0027H64.6738C67.4573 52.0195 86.4657 30 120.006 30H120ZM86.2911 181.718C87.0418 182.156 87.6989 182.737 88.2249 183.428C88.7509 184.12 89.1354 184.909 89.3566 185.749C89.5777 186.589 89.6311 187.465 89.5137 188.326C89.3964 189.187 89.1105 190.017 88.6724 190.767L79.4117 206.643C78.9802 207.405 78.4016 208.074 77.7094 208.611C77.0172 209.148 76.2252 209.543 75.3794 209.771C74.5336 210 73.6508 210.058 72.7823 209.942C71.9139 209.827 71.077 209.54 70.3203 209.098C69.5636 208.657 68.9022 208.069 68.3744 207.37C67.8467 206.67 67.4631 205.873 67.246 205.024C67.0289 204.176 66.9825 203.292 67.1097 202.425C67.2368 201.559 67.5348 200.726 67.9865 199.975L77.2473 184.099C77.6849 183.349 78.2662 182.691 78.9579 182.165C79.6496 181.639 80.4381 181.255 81.2785 181.034C82.1188 180.813 82.9945 180.759 83.8555 180.877C84.7165 180.994 85.5459 181.28 86.2964 181.718H86.2911ZM131.007 190.767C131.459 190.016 131.757 189.183 131.884 188.316C132.011 187.45 131.965 186.566 131.748 185.717C131.531 184.869 131.147 184.071 130.619 183.372C130.092 182.673 129.43 182.085 128.674 181.644C127.917 181.202 127.08 180.915 126.212 180.8C125.343 180.684 124.46 180.742 123.615 180.971C122.769 181.199 121.977 181.593 121.285 182.13C120.592 182.667 120.014 183.337 119.582 184.099L110.321 199.975C109.884 200.725 109.598 201.555 109.481 202.416C109.363 203.277 109.417 204.152 109.638 204.993C109.859 205.833 110.244 206.621 110.769 207.313C111.295 208.005 111.952 208.586 112.703 209.024C113.453 209.462 114.283 209.747 115.144 209.865C116.005 209.982 116.88 209.929 117.721 209.707C118.561 209.486 119.349 209.102 120.041 208.576C120.733 208.05 121.314 207.393 121.752 206.643L131.013 190.767H131.007Z" fill="#0DAB50"/>
</svg>
