<?xml version="1.0" encoding="UTF-8"?>
<svg xmlns="http://www.w3.org/2000/svg" xmlns:xlink="http://www.w3.org/1999/xlink" width="500px" height="500px" viewBox="0 0 500 500" version="1.1">
<defs>
<linearGradient id="linear0" gradientUnits="userSpaceOnUse" x1="84.899" y1="136.454" x2="78.9471" y2="26.1657" gradientTransform="matrix(2.994012,0,0,2.994012,0,0)">
<stop offset="0" style="stop-color:rgb(5.098039%,67.058824%,31.372549%);stop-opacity:1;"/>
<stop offset="1" style="stop-color:rgb(83.921569%,94.509804%,25.098039%);stop-opacity:1;"/>
</linearGradient>
</defs>
<g id="surface1">
<path style=" stroke:none;fill-rule:nonzero;fill:rgb(10.980392%,16.470588%,22.352941%);fill-opacity:1;" d="M 77.199219 0 L 422.800781 0 C 465.261719 0 500 34.738281 500 77.199219 L 500 422.800781 C 500 465.261719 465.261719 500 422.800781 500 L 77.199219 500 C 34.738281 500 0 465.261719 0 422.800781 L 0 77.199219 C 0 34.753906 34.738281 0 77.199219 0 Z M 77.199219 0 "/>
<path style=" stroke:none;fill-rule:evenodd;fill:url(#linear0);" d="M 236.441406 390.222656 C 244.730469 326.964844 306.210938 284.53125 368.613281 299.523438 C 366.96875 305.769531 364.851562 311.824219 362.292969 317.640625 C 312.328125 306.714844 263.292969 340.34375 255.609375 390.84375 C 249.097656 391.140625 242.894531 390.933594 236.441406 390.238281 Z M 292.832031 139.570312 C 269.300781 135.160156 248.667969 155.792969 253.078125 179.328125 C 276.613281 183.738281 297.242188 163.105469 292.832031 139.570312 Z M 207.167969 140.132812 C 230.699219 135.722656 251.332031 156.355469 246.921875 179.886719 C 223.386719 184.300781 202.757812 163.667969 207.167969 140.132812 Z M 250.03125 109.039062 C 265.125 119.367188 265.125 141.644531 250.03125 151.972656 C 234.933594 141.644531 234.933594 119.367188 250.03125 109.039062 Z M 349.597656 251.421875 C 347.761719 227.546875 322.492188 212.953125 300.902344 223.3125 C 302.738281 247.1875 328.015625 261.78125 349.597656 251.421875 Z M 326.875 168.816406 C 337.238281 190.410156 322.628906 215.691406 298.769531 217.511719 C 288.421875 195.917969 303.015625 170.636719 326.875 168.816406 Z M 368.007812 202.179688 C 361.953125 219.40625 340.390625 225.179688 326.535156 213.292969 C 332.589844 196.082031 354.152344 190.292969 368.007812 202.179688 Z M 150.375 251.421875 C 152.210938 227.546875 177.476562 212.953125 199.070312 223.3125 C 197.234375 247.1875 171.96875 261.78125 150.375 251.421875 Z M 173.09375 168.816406 C 162.75 190.410156 177.34375 215.691406 201.214844 217.511719 C 211.5625 195.917969 196.96875 170.636719 173.09375 168.816406 Z M 131.964844 202.179688 C 138.015625 219.390625 159.582031 225.179688 173.4375 213.292969 C 167.367188 196.082031 145.816406 190.292969 131.964844 202.179688 Z M 249.984375 187.851562 C 257.222656 187.851562 263.113281 193.726562 263.113281 200.964844 C 263.113281 208.21875 257.238281 214.078125 249.984375 214.078125 C 242.746094 214.078125 236.871094 208.203125 236.871094 200.964844 C 236.871094 193.710938 242.746094 187.851562 249.984375 187.851562 Z M 372.582031 265.792969 C 372.710938 272.410156 372.359375 278.625 371.46875 285.0625 C 301.375 268.53125 231.601562 316.027344 221.90625 387.738281 C 215.574219 386.257812 209.445312 384.273438 203.527344 381.859375 C 203.777344 380.289062 204.058594 378.75 204.355469 377.210938 C 199.839844 369.25 193.386719 362.53125 185.644531 357.691406 C 177.625 352.671875 168.167969 349.667969 157.984375 349.417969 C 153.023438 343.792969 148.570312 337.722656 144.707031 331.257812 C 169.511719 327.230469 194.199219 335.992188 210.925781 354.09375 C 212.804688 349.148438 214.953125 344.339844 217.347656 339.691406 C 196.109375 319.742188 166.375 311.421875 137.660156 317.625 C 135.101562 311.808594 132.984375 305.753906 131.355469 299.507812 C 165.472656 291.308594 201.171875 300.171875 227.382812 323.070312 C 230.210938 319.042969 233.246094 315.167969 236.472656 311.46875 C 206.929688 286.011719 166.6875 276.0625 128.5 285.046875 C 127.628906 278.609375 127.257812 272.378906 127.390625 265.777344 C 167.175781 257.488281 207.964844 266.398438 240.378906 290.242188 C 240.425781 258.289062 247.351562 229.234375 204.472656 221.480469 C 216.640625 214.316406 240.289062 219.910156 249.941406 231.425781 C 262.980469 215.5 288.75 217.320312 295.410156 221.480469 C 252.515625 229.234375 259.441406 258.304688 259.488281 290.257812 C 291.648438 266.578125 332.5 257.398438 372.566406 265.808594 Z M 355.25 331.273438 C 351.386719 337.722656 346.945312 343.792969 341.988281 349.402344 C 319.933594 349.917969 300.660156 363.492188 292.464844 383.398438 C 285.535156 385.960938 278.300781 387.898438 270.855469 389.1875 C 278.863281 350.6875 315.699219 324.9375 355.234375 331.273438 Z M 355.25 331.273438 "/>
</g>
</svg>
